<?xml version="1.0" encoding="UTF-8"?>
<svg width="1024" height="1024" viewBox="0 0 1024 1024" fill="none" xmlns="http://www.w3.org/2000/svg">
  <defs>
    <linearGradient id="bg" x1="180" y1="120" x2="900" y2="960" gradientUnits="userSpaceOnUse">
      <stop offset="0" stop-color="#2B7CFF"/>
      <stop offset="0.55" stop-color="#2142D8"/>
      <stop offset="1" stop-color="#0B1638"/>
    </linearGradient>
    <linearGradient id="shine" x1="220" y1="180" x2="840" y2="820" gradientUnits="userSpaceOnUse">
      <stop offset="0" stop-color="#FFFFFF" stop-opacity="0.30"/>
      <stop offset="0.35" stop-color="#FFFFFF" stop-opacity="0.12"/>
      <stop offset="1" stop-color="#FFFFFF" stop-opacity="0"/>
    </linearGradient>
    <filter id="shadow" x="0" y="0" width="1024" height="1024" filterUnits="userSpaceOnUse" color-interpolation-filters="sRGB">
      <feDropShadow dx="0" dy="22" stdDeviation="28" flood-color="#000000" flood-opacity="0.25"/>
    </filter>
  </defs>

  <!-- Rounded square background -->
  <rect x="72" y="72" width="880" height="880" rx="212" fill="url(#bg)"/>
  <rect x="92" y="92" width="840" height="840" rx="196" fill="url(#shine)"/>

  <!-- Book icon -->
  <g filter="url(#shadow)">
    <path d="M330 335C330 302 356 276 389 276H687C707 276 723 292 723 312V733C723 760 701 782 674 782H391C357 782 330 755 330 721V335Z" fill="#FFFFFF" fill-opacity="0.92"/>
    <path d="M396 312H678V734H405C389 734 376 721 376 705V336C376 322 387 312 396 312Z" fill="#0B1638" fill-opacity="0.06"/>
    <path d="M392 276H432V782H392C357 782 330 755 330 721V335C330 302 357 276 392 276Z" fill="#FFFFFF" fill-opacity="0.85"/>
    <path d="M392 276H432V782H392C357 782 330 755 330 721V335C330 302 357 276 392 276Z" fill="#0B1638" fill-opacity="0.08"/>

    <!-- Lines on page -->
    <path d="M474 404H652" stroke="#0B1638" stroke-opacity="0.28" stroke-width="18" stroke-linecap="round"/>
    <path d="M474 466H624" stroke="#0B1638" stroke-opacity="0.22" stroke-width="18" stroke-linecap="round"/>
    <path d="M474 528H664" stroke="#0B1638" stroke-opacity="0.18" stroke-width="18" stroke-linecap="round"/>

    <!-- Bookmark -->
    <path d="M660 312H720V468L690 446L660 468V312Z" fill="#2B7CFF" fill-opacity="0.95"/>
  </g>

  <!-- Spark (learning) -->
  <g>
    <path d="M292 480C322 472 346 448 354 418C362 448 386 472 416 480C386 488 362 512 354 542C346 512 322 488 292 480Z" fill="#FFFFFF" fill-opacity="0.92"/>
    <path d="M744 598C766 592 784 574 790 552C796 574 814 592 836 598C814 604 796 622 790 644C784 622 766 604 744 598Z" fill="#FFFFFF" fill-opacity="0.75"/>
  </g>
</svg>
